{
  "accessors": [
    {
      "bufferView": 2,
      "componentType": 5126,
      "count": 65532,
      "max": [
        1.1645451784133911,
        0.7832490801811218,
        0.7093284130096436
      ],
      "min": [
        -1.3001741170883179,
        -0.8095078468322754,
        -0.7770636081695557
      ],
      "type": "VEC3"
    },
    {
      "bufferView": 2,
      "byteOffset": 786384,
      "componentType": 5126,
      "count": 65532,
      "max": [
        0.9853948354721069,
        0.9998965859413147,
        0.9890409708023071
      ],
      "min": [
        -0.9999822974205017,
        -0.9998423457145691,
        -0.9992512464523315
      ],
      "type": "VEC3"
    },
    {
      "bufferView": 1,
      "componentType": 5126,
      "count": 65532,
      "max": [
        0.9228144288063049,
        0.9994713068008423
      ],
      "min": [
        0.00012062676250934601,
        0.006116893142461777
      ],
      "type": "VEC2"
    },
    {
      "bufferView": 0,
      "componentType": 5125,
      "count": 375264,
      "type": "SCALAR"
    },
    {
      "bufferView": 2,
      "byteOffset": 1572768,
      "componentType": 5126,
      "count": 32610,
      "max": [
        1.2944464683532715,
        0.7716421484947205,
        0.7744605541229248
      ],
      "min": [
        -1.2987587451934814,
        -0.8086696863174438,
        -0.7414801120758057
      ],
      "type": "VEC3"
    },
    {
      "bufferView": 2,
      "byteOffset": 1964088,
      "componentType": 5126,
      "count": 32610,
      "max": [
        0.9999873042106628,
        0.9946635365486145,
        0.9999370574951172
      ],
      "min": [
        -0.9999203681945801,
        -0.9998194575309753,
        -0.9979528188705444
      ],
      "type": "VEC3"
    },
    {
      "bufferView": 1,
      "byteOffset": 524256,
      "componentType": 5126,
      "count": 32610,
      "max": [
        0.9182125329971313,
        0.9999101758003235
      ],
      "min": [
        0.03161273151636124,
        0.00012145016808062792
      ],
      "type": "VEC2"
    },
    {
      "bufferView": 0,
      "byteOffset": 1501056,
      "componentType": 5125,
      "count": 170784,
      "type": "SCALAR"
    },
    {
      "bufferView": 2,
      "byteOffset": 2355408,
      "componentType": 5126,
      "count": 62763,
      "max": [
        1.301429033279419,
        0.8292623162269592,
        0.7506773471832275
      ],
      "min": [
        -1.2759729623794556,
        -0.6214030981063843,
        -0.7020928859710693
      ],
      "type": "VEC3"
    },
    {
      "bufferView": 2,
      "byteOffset": 3108564,
      "componentType": 5126,
      "count": 62763,
      "max": [
        0.9999961853027344,
        0.9997434616088867,
        0.9997326135635376
      ],
      "min": [
        -0.9999651312828064,
        -0.9996994733810425,
        -0.9998136758804321
      ],
      "type": "VEC3"
    },
    {
      "bufferView": 1,
      "byteOffset": 785136,
      "componentType": 5126,
      "count": 62763,
      "max": [
        0.9998863339424133,
        0.8625411987304688
      ],
      "min": [
        6.22384250164032e-05,
        1.582503318786621e-05
      ],
      "type": "VEC2"
    },
    {
      "bufferView": 0,
      "byteOffset": 2184192,
      "componentType": 5125,
      "count": 362610,
      "type": "SCALAR"
    }
  ],
  "asset": {
    "extras": {
      "author": "Stichting Maritieme Archeologie (https://sketchfab.com/stichtingmaritiemearcheologie)",
      "license": "CC-BY-4.0 (http://creativecommons.org/licenses/by/4.0/)",
      "source": "https://sketchfab.com/3d-models/batavialand-rijkscollectie-tabaksdoos-ol79-424a-0a7aab11c63d4d34902c5064cdb13e23",
      "title": "Batavialand rijkscollectie tabaksdoos OL79-424a"
    },
    "generator": "Sketchfab-15.68.0",
    "version": "2.0"
  },
  "bufferViews": [
    {
      "buffer": 0,
      "byteLength": 3634632,
      "name": "floatBufferViews",
      "target": 34963
    },
    {
      "buffer": 0,
      "byteLength": 1287240,
      "byteOffset": 3634632,
      "byteStride": 8,
      "name": "floatBufferViews",
      "target": 34962
    },
    {
      "buffer": 0,
      "byteLength": 3861720,
      "byteOffset": 4921872,
      "byteStride": 12,
      "name": "floatBufferViews",
      "target": 34962
    }
  ],
  "buffers": [
    {
      "byteLength": 8783592,
      "uri": "gltf.bin"
    }
  ],
  "images": [
    {
      "uri": "textures/material0_baseColor.jpeg"
    },
    {
      "uri": "textures/material1_baseColor.jpeg"
    }
  ],
  "materials": [
    {
      "doubleSided": true,
      "name": "material0",
      "pbrMetallicRoughness": {
        "baseColorTexture": {
          "index": 0
        },
        "metallicFactor": 0.0,
        "roughnessFactor": 0.9577051494623774
      }
    },
    {
      "doubleSided": true,
      "name": "material1",
      "pbrMetallicRoughness": {
        "baseColorTexture": {
          "index": 1
        },
        "metallicFactor": 0.0,
        "roughnessFactor": 0.9577051494623774
      }
    }
  ],
  "meshes": [
    {
      "name": "Model_material0_0",
      "primitives": [
        {
          "attributes": {
            "NORMAL": 1,
            "POSITION": 0,
            "TEXCOORD_0": 2
          },
          "indices": 3,
          "material": 0,
          "mode": 4
        }
      ]
    },
    {
      "name": "Model_material0_0",
      "primitives": [
        {
          "attributes": {
            "NORMAL": 5,
            "POSITION": 4,
            "TEXCOORD_0": 6
          },
          "indices": 7,
          "material": 0,
          "mode": 4
        }
      ]
    },
    {
      "name": "Model_material1_0",
      "primitives": [
        {
          "attributes": {
            "NORMAL": 9,
            "POSITION": 8,
            "TEXCOORD_0": 10
          },
          "indices": 11,
          "material": 1,
          "mode": 4
        }
      ]
    }
  ],
  "nodes": [
    {
      "children": [
        1
      ],
      "matrix": [
        -0.8532839417457581,
        0.39123076200485235,
        -0.34473901987075795,
        0.0,
        0.28799960017204285,
        -0.19754712283611278,
        -0.9370332956314087,
        0.0,
        -0.4346984624862671,
        -0.8988401293754578,
        0.055889487266540326,
        0.0,
        0.0,
        0.0,
        0.0,
        1.0
      ],
      "name": "Sketchfab_model"
    },
    {
      "children": [
        2
      ],
      "matrix": [
        1.0,
        0.0,
        0.0,
        0.0,
        0.0,
        -1.0,
        0.0,
        0.0,
        0.0,
        0.0,
        -1.0,
        0.0,
        0.0,
        0.0,
        0.0,
        1.0
      ],
      "name": "model.fbx"
    },
    {
      "children": [
        3
      ],
      "name": "RootNode"
    },
    {
      "children": [
        4,
        5,
        6
      ],
      "name": "Model"
    },
    {
      "mesh": 0,
      "name": "Model_material0_0"
    },
    {
      "mesh": 1,
      "name": "Model_material0_0"
    },
    {
      "mesh": 2,
      "name": "Model_material1_0"
    }
  ],
  "samplers": [
    {
      "magFilter": 9729,
      "minFilter": 9987,
      "wrapS": 10497,
      "wrapT": 10497
    }
  ],
  "scene": 0,
  "scenes": [
    {
      "name": "Sketchfab_Scene",
      "nodes": [
        0
      ]
    }
  ],
  "textures": [
    {
      "sampler": 0,
      "source": 0
    },
    {
      "sampler": 0,
      "source": 1
    }
  ]
}
