{
  "accessors": [
    {
      "bufferView": 2,
      "componentType": 5126,
      "count": 1608,
      "max": [
        64.59429931640625,
        46.1682014465332,
        89.97869873046875
      ],
      "min": [
        -39.56370162963867,
        -46.1682014465332,
        12.11769962310791
      ],
      "type": "VEC3"
    },
    {
      "bufferView": 2,
      "byteOffset": 19296,
      "componentType": 5126,
      "count": 1608,
      "max": [
        0.9996671080589294,
        0.9999107122421265,
        0.9992156028747559
      ],
      "min": [
        -0.9996671080589294,
        -0.9997053742408752,
        -0.9992156028747559
      ],
      "type": "VEC3"
    },
    {
      "bufferView": 3,
      "componentType": 5126,
      "count": 1608,
      "max": [
        0.9950908422470093,
        0.9999698996543884,
        0.9989302754402161,
        1.0
      ],
      "min": [
        -0.9487541317939758,
        -0.9999867677688599,
        -0.9999063014984131,
        -1.0
      ],
      "type": "VEC4"
    },
    {
      "bufferView": 1,
      "componentType": 5126,
      "count": 1608,
      "max": [
        0.9922000169754028,
        0.9884999990463257
      ],
      "min": [
        0.00989999994635582,
        0.013399999588727951
      ],
      "type": "VEC2"
    },
    {
      "bufferView": 0,
      "componentType": 5125,
      "count": 5874,
      "type": "SCALAR"
    }
  ],
  "asset": {
    "extras": {
      "author": "Willy Decarpentrie (https://sketchfab.com/skudgee)",
      "license": "CC-BY-4.0 (http://creativecommons.org/licenses/by/4.0/)",
      "source": "https://sketchfab.com/3d-models/helmet-655e1b6a4714448fa6960aa4f831fe94",
      "title": "Helmet"
    },
    "generator": "Sketchfab-12.68.0",
    "version": "2.0"
  },
  "bufferViews": [
    {
      "buffer": 0,
      "byteLength": 23496,
      "name": "floatBufferViews",
      "target": 34963
    },
    {
      "buffer": 0,
      "byteLength": 12864,
      "byteOffset": 23496,
      "byteStride": 8,
      "name": "floatBufferViews",
      "target": 34962
    },
    {
      "buffer": 0,
      "byteLength": 38592,
      "byteOffset": 36360,
      "byteStride": 12,
      "name": "floatBufferViews",
      "target": 34962
    },
    {
      "buffer": 0,
      "byteLength": 25728,
      "byteOffset": 74952,
      "byteStride": 16,
      "name": "floatBufferViews",
      "target": 34962
    }
  ],
  "buffers": [
    {
      "byteLength": 100680,
      "uri": "scene.bin"
    }
  ],
  "extensionsRequired": [
    "KHR_materials_pbrSpecularGlossiness"
  ],
  "extensionsUsed": [
    "KHR_materials_pbrSpecularGlossiness"
  ],
  "images": [
    {
      "uri": "textures/material_diffuse.jpeg"
    },
    {
      "uri": "textures/material_specularGlossiness.png"
    },
    {
      "uri": "textures/material_normal.jpeg"
    }
  ],
  "materials": [
    {
      "doubleSided": true,
      "extensions": {
        "KHR_materials_pbrSpecularGlossiness": {
          "diffuseFactor": [
            1.0,
            1.0,
            1.0,
            1.0
          ],
          "diffuseTexture": {
            "index": 0
          },
          "glossinessFactor": 1.0,
          "specularFactor": [
            1.0,
            1.0,
            1.0
          ],
          "specularGlossinessTexture": {
            "index": 1
          }
        }
      },
      "name": "material",
      "normalTexture": {
        "index": 2
      }
    }
  ],
  "meshes": [
    {
      "name": "Object_0",
      "primitives": [
        {
          "attributes": {
            "NORMAL": 1,
            "POSITION": 0,
            "TANGENT": 2,
            "TEXCOORD_0": 3
          },
          "indices": 4,
          "material": 0,
          "mode": 4
        }
      ]
    }
  ],
  "nodes": [
    {
      "children": [
        1
      ],
      "matrix": [
        1.0,
        0.0,
        0.0,
        0.0,
        0.0,
        2.220446049250313e-16,
        -1.0,
        0.0,
        0.0,
        1.0,
        2.220446049250313e-16,
        0.0,
        0.0,
        0.0,
        0.0,
        1.0
      ],
      "name": "Sketchfab_model"
    },
    {
      "children": [
        2
      ],
      "name": "Helmet.obj.cleaner"
    },
    {
      "mesh": 0,
      "name": "Object_2"
    }
  ],
  "samplers": [
    {
      "magFilter": 9729,
      "minFilter": 9987,
      "wrapS": 10497,
      "wrapT": 10497
    }
  ],
  "scene": 0,
  "scenes": [
    {
      "name": "Sketchfab_Scene",
      "nodes": [
        0
      ]
    }
  ],
  "textures": [
    {
      "sampler": 0,
      "source": 0
    },
    {
      "sampler": 0,
      "source": 1
    },
    {
      "sampler": 0,
      "source": 2
    }
  ]
}
