{
  "accessors": [
    {
      "bufferView": 2,
      "componentType": 5126,
      "count": 65532,
      "max": [
        1.400212049484253,
        14.028682708740234,
        1.3248209953308105
      ],
      "min": [
        -1.902008056640625,
        10.82544231414795,
        -1.0530929565429688
      ],
      "type": "VEC3"
    },
    {
      "bufferView": 2,
      "byteOffset": 786384,
      "componentType": 5126,
      "count": 65532,
      "max": [
        0.9988754987716675,
        0.9893316030502319,
        0.9999960064888
      ],
      "min": [
        -0.9998814463615417,
        -0.9999980330467224,
        -0.9999990463256836
      ],
      "type": "VEC3"
    },
    {
      "bufferView": 3,
      "componentType": 5126,
      "count": 65532,
      "max": [
        1.0,
        0.9960784316062927,
        0.8627451062202454,
        1.0
      ],
      "min": [
        0.09803921729326248,
        0.09019608050584793,
        0.09019608050584793,
        1.0
      ],
      "type": "VEC4"
    },
    {
      "bufferView": 1,
      "componentType": 5126,
      "count": 65532,
      "max": [
        0.9885150194168091,
        0.9837369918823242
      ],
      "min": [
        0.02033199928700924,
        0.07384499907493591
      ],
      "type": "VEC2"
    },
    {
      "bufferView": 0,
      "componentType": 5125,
      "count": 353781,
      "type": "SCALAR"
    },
    {
      "bufferView": 2,
      "byteOffset": 1572768,
      "componentType": 5126,
      "count": 65532,
      "max": [
        1.3849430084228516,
        14.535303115844727,
        1.3252149820327759
      ],
      "min": [
        -2.3897669315338135,
        10.779550552368164,
        -1.4909570217132568
      ],
      "type": "VEC3"
    },
    {
      "bufferView": 2,
      "byteOffset": 2359152,
      "componentType": 5126,
      "count": 65532,
      "max": [
        0.9998342990875244,
        0.9999914169311523,
        0.9999950528144836
      ],
      "min": [
        -0.9999211430549622,
        -0.9999700784683228,
        -0.9999997615814209
      ],
      "type": "VEC3"
    },
    {
      "bufferView": 3,
      "byteOffset": 1048512,
      "componentType": 5126,
      "count": 65532,
      "max": [
        1.0,
        0.929411768913269,
        0.6784313917160034,
        1.0
      ],
      "min": [
        0.09803921729326248,
        0.08627451211214066,
        0.08627451211214066,
        1.0
      ],
      "type": "VEC4"
    },
    {
      "bufferView": 1,
      "byteOffset": 524256,
      "componentType": 5126,
      "count": 65532,
      "max": [
        0.9998959898948669,
        0.9833099842071533
      ],
      "min": [
        0.011725000105798244,
        0.012257999740540981
      ],
      "type": "VEC2"
    },
    {
      "bufferView": 0,
      "byteOffset": 1415124,
      "componentType": 5125,
      "count": 345096,
      "type": "SCALAR"
    },
    {
      "bufferView": 2,
      "byteOffset": 3145536,
      "componentType": 5126,
      "count": 65532,
      "max": [
        1.007707953453064,
        14.534337997436523,
        0.6189540028572083
      ],
      "min": [
        -1.9899970293045044,
        10.681243896484375,
        -1.4700369834899902
      ],
      "type": "VEC3"
    },
    {
      "bufferView": 2,
      "byteOffset": 3931920,
      "componentType": 5126,
      "count": 65532,
      "max": [
        0.9913469552993774,
        0.9998075366020203,
        0.9999983310699463
      ],
      "min": [
        -0.9883790016174316,
        -0.9975154995918274,
        -0.9999945163726807
      ],
      "type": "VEC3"
    },
    {
      "bufferView": 3,
      "byteOffset": 2097024,
      "componentType": 5126,
      "count": 65532,
      "max": [
        1.0,
        0.9254902005195618,
        0.7803921699523926,
        1.0
      ],
      "min": [
        0.12941177189350128,
        0.11372549086809158,
        0.10196078568696976,
        1.0
      ],
      "type": "VEC4"
    },
    {
      "bufferView": 1,
      "byteOffset": 1048512,
      "componentType": 5126,
      "count": 65532,
      "max": [
        0.9967629909515381,
        0.9789590239524841
      ],
      "min": [
        0.00014600000577047467,
        1.9999999494757503e-05
      ],
      "type": "VEC2"
    },
    {
      "bufferView": 0,
      "byteOffset": 2795508,
      "componentType": 5125,
      "count": 351621,
      "type": "SCALAR"
    },
    {
      "bufferView": 2,
      "byteOffset": 4718304,
      "componentType": 5126,
      "count": 65534,
      "max": [
        1.3663430213928223,
        14.405590057373047,
        1.3252149820327759
      ],
      "min": [
        -2.3897669315338135,
        10.634136199951172,
        -1.4723149538040161
      ],
      "type": "VEC3"
    },
    {
      "bufferView": 2,
      "byteOffset": 5504712,
      "componentType": 5126,
      "count": 65534,
      "max": [
        0.999973475933075,
        0.9963341951370239,
        0.9999825954437256
      ],
      "min": [
        -0.9999940395355225,
        -0.9999814629554749,
        -0.9999879598617554
      ],
      "type": "VEC3"
    },
    {
      "bufferView": 3,
      "byteOffset": 3145536,
      "componentType": 5126,
      "count": 65534,
      "max": [
        1.0,
        0.9254902005195618,
        0.7843137383460999,
        1.0
      ],
      "min": [
        0.10196078568696976,
        0.09803921729326248,
        0.0941176488995552,
        1.0
      ],
      "type": "VEC4"
    },
    {
      "bufferView": 1,
      "byteOffset": 1572768,
      "componentType": 5126,
      "count": 65534,
      "max": [
        0.9983239769935608,
        0.9833400249481201
      ],
      "min": [
        0.0020639998838305473,
        0.0030060000717639923
      ],
      "type": "VEC2"
    },
    {
      "bufferView": 0,
      "byteOffset": 4201992,
      "componentType": 5125,
      "count": 293268,
      "type": "SCALAR"
    },
    {
      "bufferView": 2,
      "byteOffset": 6291120,
      "componentType": 5126,
      "count": 47581,
      "max": [
        1.400212049484253,
        14.537721633911133,
        0.9768990278244019
      ],
      "min": [
        -2.388253927230835,
        10.634136199951172,
        -1.4905649423599243
      ],
      "type": "VEC3"
    },
    {
      "bufferView": 2,
      "byteOffset": 6862092,
      "componentType": 5126,
      "count": 47581,
      "max": [
        0.999983549118042,
        0.9999914169311523,
        0.9999964237213135
      ],
      "min": [
        -0.999984085559845,
        -0.9999700784683228,
        -0.9999997615814209
      ],
      "type": "VEC3"
    },
    {
      "bufferView": 3,
      "byteOffset": 4194080,
      "componentType": 5126,
      "count": 47581,
      "max": [
        1.0,
        0.9725490212440491,
        0.8039215803146362,
        1.0
      ],
      "min": [
        0.10980392247438431,
        0.10196078568696976,
        0.10588235408067703,
        1.0
      ],
      "type": "VEC4"
    },
    {
      "bufferView": 1,
      "byteOffset": 2097040,
      "componentType": 5126,
      "count": 47581,
      "max": [
        0.9997749924659729,
        0.9833099842071533
      ],
      "min": [
        0.0010260000126436353,
        0.0020669999066740274
      ],
      "type": "VEC2"
    },
    {
      "bufferView": 0,
      "byteOffset": 5375064,
      "componentType": 5125,
      "count": 156231,
      "type": "SCALAR"
    }
  ],
  "asset": {
    "extras": {
      "author": "SCDNR-HTP (https://sketchfab.com/SCDNR-HTP)",
      "license": "CC-BY-NC-ND-4.0 (http://creativecommons.org/licenses/by-nc-nd/4.0/)",
      "source": "https://sketchfab.com/3d-models/edgefield-pottery-collection-203-219b9e1842f04865b1437184360766cf",
      "title": "Edgefield Pottery Collection 203"
    },
    "generator": "Sketchfab-15.68.0",
    "version": "2.0"
  },
  "bufferViews": [
    {
      "buffer": 0,
      "byteLength": 5999988,
      "name": "floatBufferViews",
      "target": 34963
    },
    {
      "buffer": 0,
      "byteLength": 2477688,
      "byteOffset": 5999988,
      "byteStride": 8,
      "name": "floatBufferViews",
      "target": 34962
    },
    {
      "buffer": 0,
      "byteLength": 7433064,
      "byteOffset": 8477676,
      "byteStride": 12,
      "name": "floatBufferViews",
      "target": 34962
    },
    {
      "buffer": 0,
      "byteLength": 4955376,
      "byteOffset": 15910740,
      "byteStride": 16,
      "name": "floatBufferViews",
      "target": 34962
    }
  ],
  "buffers": [
    {
      "byteLength": 20866116,
      "uri": "scene.bin"
    }
  ],
  "extensionsUsed": [
    "KHR_materials_clearcoat",
    "KHR_materials_specular"
  ],
  "images": [
    {
      "uri": "textures/ESPCJug203_V01_250k_baseColor.jpeg"
    }
  ],
  "materials": [
    {
      "doubleSided": true,
      "extensions": {
        "KHR_materials_clearcoat": {
          "clearcoatFactor": 0.08990503590106179,
          "clearcoatRoughnessFactor": 0.041142982530994375
        },
        "KHR_materials_specular": {
          "specularColorFactor": [
            1.0,
            1.0,
            1.0
          ],
          "specularFactor": 0.0
        }
      },
      "name": "ESPCJug203_V01_250k",
      "pbrMetallicRoughness": {
        "baseColorTexture": {
          "index": 0
        },
        "metallicFactor": 0.0
      }
    }
  ],
  "meshes": [
    {
      "name": "Object_0",
      "primitives": [
        {
          "attributes": {
            "COLOR_0": 2,
            "NORMAL": 1,
            "POSITION": 0,
            "TEXCOORD_0": 3
          },
          "indices": 4,
          "material": 0,
          "mode": 4
        }
      ]
    },
    {
      "name": "Object_1",
      "primitives": [
        {
          "attributes": {
            "COLOR_0": 7,
            "NORMAL": 6,
            "POSITION": 5,
            "TEXCOORD_0": 8
          },
          "indices": 9,
          "material": 0,
          "mode": 4
        }
      ]
    },
    {
      "name": "Object_2",
      "primitives": [
        {
          "attributes": {
            "COLOR_0": 12,
            "NORMAL": 11,
            "POSITION": 10,
            "TEXCOORD_0": 13
          },
          "indices": 14,
          "material": 0,
          "mode": 4
        }
      ]
    },
    {
      "name": "Object_3",
      "primitives": [
        {
          "attributes": {
            "COLOR_0": 17,
            "NORMAL": 16,
            "POSITION": 15,
            "TEXCOORD_0": 18
          },
          "indices": 19,
          "material": 0,
          "mode": 4
        }
      ]
    },
    {
      "name": "Object_4",
      "primitives": [
        {
          "attributes": {
            "COLOR_0": 22,
            "NORMAL": 21,
            "POSITION": 20,
            "TEXCOORD_0": 23
          },
          "indices": 24,
          "material": 0,
          "mode": 4
        }
      ]
    }
  ],
  "nodes": [
    {
      "children": [
        1
      ],
      "matrix": [
        0.864452600479126,
        -0.5025542378425598,
        0.01268364768475283,
        0.0,
        0.5014169812202454,
        0.8637587428092957,
        0.05001892149448414,
        0.0,
        -0.03609283268451691,
        -0.03687919303774856,
        0.9986677169799805,
        0.0,
        0.0,
        0.0,
        0.0,
        1.0
      ],
      "name": "Sketchfab_model"
    },
    {
      "children": [
        2,
        3,
        4,
        5,
        6
      ],
      "name": "ESPCJug203_V01_250k.obj.cleaner.materialmerger.gles"
    },
    {
      "mesh": 0,
      "name": "Object_2"
    },
    {
      "mesh": 1,
      "name": "Object_3"
    },
    {
      "mesh": 2,
      "name": "Object_4"
    },
    {
      "mesh": 3,
      "name": "Object_5"
    },
    {
      "mesh": 4,
      "name": "Object_6"
    }
  ],
  "samplers": [
    {
      "magFilter": 9729,
      "minFilter": 9987,
      "wrapS": 10497,
      "wrapT": 10497
    }
  ],
  "scene": 0,
  "scenes": [
    {
      "name": "Sketchfab_Scene",
      "nodes": [
        0
      ]
    }
  ],
  "textures": [
    {
      "sampler": 0,
      "source": 0
    }
  ]
}
